<svg height="161" viewBox="0 0 195 161" width="195" xmlns="http://www.w3.org/2000/svg" xmlns:xlink="http://www.w3.org/1999/xlink"><mask id="a" fill="#fff"><path d="m0 .51h154.23v153.941h-154.23z" fill="#fff" fill-rule="evenodd"/></mask><g fill="none" fill-rule="evenodd" transform="translate(2 2)"><path d="m93.6860807 140.603591c2.5690638-3.425004 4.9157859-7.694343 6.9747953-12.75019 1.406076-3.451182 2.649701-7.188367 3.723831-11.154902 7.131765 1.582003 13.681057 3.773522 19.350769 6.472188-8.144046 8.277289-18.474712 14.403303-30.0493953 17.432904zm-63.1916104-17.432904c5.6701035-2.698666 12.219396-4.890575 19.3507695-6.472188 1.0741293 3.966535 2.3177551 7.70372 3.7238311 11.154902 2.059009 5.055847 4.4057311 9.325186 6.9747949 12.75019-11.5746834-3.029601-21.9053497-9.155615-30.0493955-17.432904zm78.6619697-49.5973137c-.231345-10.4480995-1.38572-20.4945444-3.370355-29.5724078 8.145612-1.7843936 15.663343-4.3357601 22.14883-7.5118792 8.325677 10.2629008 13.598462 23.0861545 14.431069 37.084287zm0 7.8142923h33.209544c-.795028 13.369082-5.640745 25.6664334-13.32719 35.6851384-6.622884-3.381635-14.384878-6.091632-22.860479-7.980346 1.743894-8.580484 2.762438-17.9674027 2.978125-27.7047924zm-64.0829339 0c.2156871 9.7373897 1.2342311 19.1243084 2.9781255 27.7047924-8.4748181 1.888323-16.2372035 4.59832-22.8604794 7.980346-7.6864447-10.018705-12.5321617-22.3160564-13.3271897-35.6851384zm3.370355-37.3867001c-1.9846341 9.0778634-3.13901 19.1243083-3.370355 29.5724078h-33.2095436c.8326068-13.9981325 6.1053921-26.8213862 14.431069-37.084287 6.4854867 3.1761191 14.0036095 5.7274856 22.1488296 7.5118792zm5.1252098-16.8929371c-1.1864745 2.911996-2.2570808 6.0275544-3.2079046 9.3119014-6.7587163-1.4640076-13.0230357-3.4808765-18.5220771-5.9591793 7.9240529-7.6048692 17.7583649-13.2381926 28.7051681-16.1033028-2.5694553 3.4250043-4.9161774 7.6947336-6.9751864 12.7505807zm39.8398656 2.9432532c.9927085 2.4372778 1.8985159 5.0347485 2.7150734 7.7666251-6.1558887.9064579-12.5286388 1.3725805-19.0090366 1.3725805-6.4757006 0-12.8441447-.4657318-18.9961189-1.3706269 4.783477-15.9728042 12.1242744-25.5886816 18.9961189-25.5886816 5.7417382 0 11.6807655 6.4952398 16.2939632 17.8201029zm7.2519395-2.9432532c-2.0590094-5.0558471-4.4057315-9.3255764-6.9751868-12.7505807 10.9468028 2.8651102 20.7811148 8.4984336 28.7051678 16.1029121-5.499041 2.4786935-11.762969 4.4955624-18.522077 5.95957-.950824-3.284347-2.02143-6.3999054-3.207904-9.3119014zm.665067 54.2796372c-.219993 9.6338503-1.245974 18.4682985-2.8411189 26.2528964-6.9137292-1.083452-14.0826816-1.637876-21.3698508-1.637876-7.289518 0-14.4604276.554815-21.3776798 1.639439-1.6519045-8.0901369-2.6195604-16.9882715-2.8325074-26.2544594zm-48.4219398-7.8142923c.2379995-10.4223123 1.4182109-19.9119889 3.2435263-28.1459087 6.7861176 1.0435987 13.8200209 1.5773149 20.9674438 1.5773149 7.1497715 0 14.1860235-.5341069 20.9737069-1.5780963 1.8973415 8.5867351 3.0067008 18.1514288 3.2364798 28.1466901zm24.2109701 69.1564867c-5.7417383 0-11.6807655-6.49524-16.2939633-17.819712-1.2170074-2.988185-2.3032716-6.217832-3.2540953-9.641664 6.3253851-.958423 12.8797663-1.451505 19.5480586-1.451505 6.6651606 0 13.2164103.4923 19.5378809 1.449942-4.7584244 17.092592-12.4014186 27.462939-19.5378809 27.462939zm0-142.22011974c-42.5212746 0-77.1149733 34.52901344-77.1149733 76.97077924 0 42.4417655 34.5936987 76.9707795 77.1149733 76.9707795 42.5212747 0 77.1149737-34.529014 77.1149737-76.9707795 0-42.4417658-34.593699-76.97077924-77.1149737-76.97077924z" fill="#fff" mask="url(#a)" transform="translate(18.385 1.02)"/><g stroke="#fff" stroke-dasharray="1 8" stroke-linecap="round" stroke-linejoin="round" stroke-width="4"><g><path d="m0 0 26.556 25.487"/><path d="m164.444 0 26.556 25.487" transform="matrix(-1 0 0 1 355.444 0)"/></g><g transform="matrix(-1 0 0 -1 191 157)"><path d="m0 0 26.556 25.487"/><path d="m164.444 0 26.556 25.487" transform="matrix(-1 0 0 1 355.444 0)"/></g></g></g></svg>