<svg height="105" viewBox="0 0 104 105" width="104" xmlns="http://www.w3.org/2000/svg"><g fill="#c23a00" fill-rule="evenodd" transform="translate(.74)"><path d="m26.8968267 12.9262429c4.0734742 3.3684242 12.3661979 10.2182733 15.442305 12.7209111.3903815.3165687.9034778.4146136 1.3869249.2808405 2.4073524-.6672039 4.9423612-1.0253171 7.559729-1.0253171 2.6181913 0 5.1523765.3581132 7.5605525 1.0253171.4834471.1337731.9965435.0357282 1.3869249-.2808405 3.0769308-2.5026378 11.3680073-9.3524869 15.4423051-12.7209111l-.680285 24.2594671c-.0082359.3124142.0798882.6173505.2479004.8799114 2.8833872 4.4959406 4.5577449 9.8526822 4.5577449 15.6057578 0 16.4931473-13.7580643 29.7441655-30.3278635 28.7113705-14.430937-.9006838-26.0781412-12.9136774-26.6768908-27.4883018-.2561364-6.2167118 1.4462233-12.0171481 4.5330371-16.8296573.1680123-.2617301.2561364-.5658355.2479005-.8774189zm-8.6369842 40.7816954c0 18.3867434 14.7743739 33.2920617 33.0004118 33.2920617 18.2252143 0 32.9995882-14.9053183 32.9995882-33.2920617 0-7.7181282-2.6124262-14.8130896-6.9823926-20.4589806l.6069855-21.6338576c.0370615-1.340224-1.4997567-2.10796551-2.5284201-1.2587969-1.3622172 1.1258546-3.1337584 2.5882193-5.0123663 4.1394891l.03212-3.5254621c.0024708-.2733625-.3195528-.4179372-.519685-.232649l-5.2495602 4.8565464c-.1647179.1520527-.1202441.4245843.0840062.516813l2.3933514 1.0743395c-2.1792181 1.797213-4.2752537 3.5254622-5.8408975 4.8116784-3.1518774-1.0103611-6.498122-1.5820127-9.9827296-1.5820127-3.4755481 0-6.8201455.5492176-9.9662578 1.5545934-1.5648202-1.287878-3.6550906-3.0094801-5.8236021-4.7992151l2.3595843-1.0593835c.2034266-.0922287.2479004-.3647603.0831825-.516813l-5.2495601-4.8565464c-.1993087-.1852882-.5221558-.0407135-.5196851.232649l.03212 3.481425c-1.8588417-1.5338211-3.6106168-2.9795681-4.9596565-4.095452-1.0286635-.84916861-2.5663053-.0814271-2.5292437 1.2587969l.6053383 21.5590776c-4.4020864 5.6575234-7.0326316 12.7832278-7.0326316 20.5337606z"/><path d="m57.5843983 39.9796686c2.2445183-.9839848 4.6997256-1.6137966 8.4173683-1.3012005.1886007.0161687.3296265-.1732368.2191846-.3125961-2.2266776-2.7971962-7.6926998-3.9728963-8.9559847 1.3874339-.0390794.1639975.1529195.2995071.3194318.2263627m-21.2856645-1.6135608c-.1104419.1393393.0305839.3279476.2191846.312551 3.7176427-.312551 6.1728501.31717 8.4173683 1.3010127.1665124.0731339.3585113-.0623562.3194319-.22633-1.2632849-5.3603264-6.7301567-4.184796-8.9559848-1.3872337m21.5612153 14.9950889c0-1.8060878.4557729-7.6971754 6.3172236-7.6971754 2.799864 0 4.5732199 1.7192085 5.1920599 2.4376338-.0709342 2.2663812-.6734676 3.9947789-1.7937393 5.1400825-1.824722 1.8637289-4.627032 1.877095-5.8443287 1.8520336h-3.8712155zm-1.5206017 5.6388033h.40033c.8577335 0 1.1202717-.7769018 1.1202717-1.0425521v-.1996554h3.8638775c1.3787332.0033415 5.0982962.0142014 7.6869881-2.6297708 1.4333608-1.4635827 2.2633729-3.4860335 2.494113-6.011382.3766852-.2572965.9017616-.6064846 1.5638145-1.0266799 1.4154233-.8980316.703635-2.5328669-.3595632-2.5328669-.5780732 0-1.7391118.223046-2.2234214.3207852-1.1406551-1.1494805-3.4032126-2.8778781-6.7085849-2.8778781-6.5813924 0-8.9173302 5.5811622-8.9173302 10.3611967v4.5327625c0 .6106615.482679 1.1060408 1.0795049 1.1060408zm-18.9972677-13.3359787c5.8611992 0 6.3169525 5.8910876 6.3169525 7.6971754v1.7325745h-3.8710494c-1.2172445.0250614-4.0194342.0116953-5.8440779-1.8520336-1.1202237-1.1453036-1.7227311-2.8737013-1.7936623-5.1400825.6188135-.7184253 2.3920932-2.4376338 5.1918371-2.4376338m-9.2911708 2.4267739c.6620245.4193599 1.1870783.768548 1.5637474 1.0258445.2307302 2.5253485 1.0607067 4.5477993 2.4940059 6.011382 2.5885808 2.6439722 6.3079842 2.6322769 7.6866583 2.6297708h3.8637117v.1996554c0 .2656503.2625269 1.0425521 1.1202236 1.0425521h.4003128c.5968004 0 1.0802739-.4953793 1.0802739-1.1060408v-4.5327625c0-4.7800345-2.3366528-10.3611967-8.9177628-10.3611967-3.3052305 0-5.5676909 1.7283976-6.7082971 2.8778781-.4842888-.0977392-1.6452775-.3207852-2.2233259-.3207852-1.0631526 0-1.7749104 1.6348353-.3595478 2.5337023m37.884783 14.9100896-7.3521215-.0008848c-.188538 0-.3366135.1636897-.3228391.3565781l.1609891 2.3332415c.0154963.2150087.2212524.3592325.421843.2946415l7.1894107-2.3323568c.3529707-.1150252.2737675-.6512195-.0972822-.6512195m-6.4755851 4.0252474c-.1579179-.0679755-.3454956.001494-.4088231.1523847l-.770351 1.8271222c-.0729468.1733002.0513033.3637811.2501036.3832026l6.3952758.6095388c.3390827.0313733.4665393-.4018773.1587196-.5355874zm-16.3621479-1.3363126.1609947-2.3332415c.013775-.1928884-.1343057-.3565781-.3219894-.3565781l-7.3532394.0008848c-.3702018 0-.4502686.5361943-.0972856.6512195l7.1905229 2.3323568c.1997367.064591.4055-.0796328.4209968-.2946415m1.1407929 3.316374-.7703707-1.8273362c-.0633291-.1509083-.2501099-.221133-.4088335-.1524025l-5.6242669 2.4369463c-.3086293.1337258-.1811694.5670271.1579219.534903l6.3954392-.6096101c.1988054-.0186768.3230587-.2091799.25011-.3825005m-12.7307284-34.06379 7.6155506-5.3115229c.1644372-.1143891.182989-.3482139.0396335-.4869948l-9.3644877-9.0535603c-.2150333-.2077508-.5725788-.0311206-.5363182.2657864l1.7480939 14.3650833c.0286711.2371892.3010465.358307.4975279.2212083m38.5030726 0c.196467.1370987.4688226.0159809.4974916-.2212083l1.7488096-14.3650833c.0354147-.296907-.3221048-.4735372-.5371223-.2657864l-9.3638044 9.0535603c-.1433451.1387809-.1247946.3726057.0396306.4869948z"/><path d="m47.2621682 63.0965227c.5359096.9892158 2.3905276 1.8991648 2.3905276 1.8991648v4.3912121s-5.5992442 3.1674317-6.5935418 3.7182542c-1.3001707.719062-.9378418 2.136156.5350669 1.8595315 1.8563032-.3494205 7.665361-2.6902139 7.665361-2.6902139s5.810743 2.3407934 7.665361 2.6902139c1.4729088.2766245 1.8360802-1.1404695.5359096-1.8595315-.9951403-.5508225-6.5943844-3.7182542-6.5943844-3.7182542v-4.3912121s1.8554606-.909949 2.3905275-1.8991648c.5359096-.9892158.2056006-2.0965227-.9066646-2.0965227h-6.1814981c-1.1122652 0-1.4425743 1.1073069-.9066647 2.0965227m.6829375-52.4584749 3.0438999-4.37384929c.1313121-.18950231.4100327-.18950231.5413448 0l3.044747 4.37384929c.1533387.2200946-.0033887.5217686-.2702488.5217686h-6.089494c-.2668602 0-.4235875-.301674-.2702489-.5217686m-5.5684813 4.3619522h17.7661072c.9013942 0 1.4300314-1.017194.914949-1.7590573l-8.8834772-12.762938c-.4439197-.6373396-1.3851311-.6373396-1.8290508 0l-8.88263 12.762938c-.5159296.7418633.0127076 1.7590573.9141018 1.7590573m35.7643422 77.1083951-4.7596976-1.6651543c-.2382657-.0835823-.2855979-.4049278-.0810264-.5550514l4.6642309-3.4284974c.2045716-.1501236.4925762-.0056804.4965874.2499354l.0955026 5.0936517c.0031731.2207222-.2094209.3773376-.4155969.305116m2.1652493-11.9027693-13.610826 10.0030977c-.6907297.5071742-.5310837 1.5913097.2751688 1.8728928l13.8884015 4.8591344c.6931365.2418206 1.4135491-.2872635 1.4007133-1.0297665l-.2775755-14.8614206c-.0152426-.8634133-.9851523-1.351112-1.6758821-.8439378m-70.97110957-36.5661366-3.19181154-4.2141678c-.1374545-.1826027-.05228331-.4459882.16612599-.5124657l5.06557782-1.537397c.2546703-.0774168.4907884.1632485.4081471.4156946l-1.87292299 5.7515649c-.08179808.2524461-.41489334.3079843-.57511638.096771m2.40418887 6.5947349 5.4644488-16.7826201c.2774388-.8524265-.5203032-1.6627787-1.3787614-1.4019176l-14.77762366 4.4859681c-.73786925.2238356-1.02795727 1.112446-.56246718 1.7267317l9.31317482 12.2974935c.54054192.7144226 1.66294642.5259295 1.94122862-.3256556m84.6370053-10.8089252-3.1918602 4.2141759c-.1610688.2120552-.4933258.1556755-.5759684-.0959297l-1.8721083-5.7524175c-.0826426-.2524466.1534792-.492271.4089966-.4156955l5.0648118 1.5382416c.2184126.0664776.3044284.3298636.1661285.5116252m5.0960135-2.8896726-14.7778489-4.4859769c-.8584713-.2608615-1.6553822.5503337-1.3787825 1.4019204l5.4645322 16.7826529c.2774431.8515866 1.3998647 1.0400801 1.9412582.3256561l9.313317-12.296676c.465497-.6142868.175405-1.5037405-.562476-1.7275765m-73.3348156 53.9072644-4.760042 1.665983c-.2045864.0714109-.4188003-.0852061-.4147888-.3051191l.0946713-5.0937045c.0048138-.2564299.292037-.4008746.4974256-.2507495l4.6653708 3.428533c.203784.1501251.1572507.471474-.0826369.5550571m6.6871652-.2345197-13.6118109-10.0023899c-.6907797-.507991-1.6607597-.0194757-1.6768056.8439465l-.275991 14.8607632c-.0144414.7425107.7060234 1.2724117 1.4008147 1.0297771l13.8878018-4.8583732c.8071131-.2823975.9659684-1.3665443.275991-1.8737237m10.1957275 2.0409811-5.3964361-1.2421067c-.2121744-.0485401-.4011297.1542882-.3578942.3848537l1.3771321 7.3460248c.0528434.2799724.3883192.3571165.5412449.1248174l4.0193041-6.1047849c.1257033-.1915601.0296243-.4602642-.1833508-.5088043m8.822595.7506479h-5.1652827c-.2722653 0-.4716162.2768747-.4049073.5613005l2.5822535 11.0976405c.1062688.454745.7035458.454745.8090389 0l2.5830292-11.0976405c.0659332-.2844258-.132642-.5613005-.4041316-.5613005m8.052497-1.9927537-5.3969445 1.2421065c-.2121944.0485401-.3082825.3172442-.1825673.5088043l4.018882 6.1047843c.1529401.232299.4884475.1551549.5412959-.1248174l1.3772618-7.3468908c.0440404-.2296987-.1449327-.432527-.3579279-.3839869m-42.8020748-62.186198c.0875466.2005203.3447148.2411115.4861963.077935l3.6042627-4.1573455c.1422632-.1639883.0758216-.4245835-.1250666-.4944002l-6.4104441-2.2308896c-.2430982-.0844296-.468218.1737301-.3611298.417277zm67.6970703 42.2977205c-.138652-.1697805-.4219473-.1549831-.5383465.0280371l-2.9484958 4.6471558c-.1163993.1830202.0111264.4143266.2422131.4384697l7.3545499.7655697c.2798717.0288159.4630294-.2601224.2952775-.4665069zm2.8242131-8.0494029c-.2426837-.1563031-.5629936-.0369749-.6520594.2428581l-1.6808098 5.3227092c-.0890658.279833.1029568.5697501.3881306.5899182l11.1201463.7739526c.4551342.0319329.649608-.5840359.2631117-.8336166zm1.0256-2.0832414 6.4146437-2.0492958c.2441748-.0773022.279168-.4141187.0559891-.5419039l-5.8539747-3.3563332c-.18352-.1049101-.4136975.0149871-.4362487.2279625l-.5591137 5.4048402c-.0225511.2129753.177299.3786228.3787043.3147302m-80.3774856-5.9475329-5.85437203 3.3563332c-.22238683.1277852-.18817347.4646017.05598549.5419039l6.41422704 2.0492958c.2013922.0638926.4020069-.1017549.3794572-.3147302l-.559855-5.4048402c-.0225497-.2129754-.2519347-.3328726-.4354427-.2279625m3.975685 13.5963359-1.682452-5.3218855c-.0882491-.2806742-.4093776-.4000028-.6504283-.2436992l-9.43856406 6.0958404c-.38731534.2504219-.19284055.8655522.26311294.8336192l11.11938192-.7731146c.2851752-.0201682.4763815-.3109265.3889495-.5907603m1.0295154 2.5118784c-.1164012-.1830202-.4005572-.1978176-.5383558-.0280371l-4.405274 5.4127254c-.1686106.2063845.0154061.4953228.2952826.4665069l7.3538205-.7655697c.2310907-.0241431.3586186-.2554495.2430732-.4384697zm66.6712945-42.248162c.1422633.1639802.3986499.1225793.4869783-.0779312l2.8061831-6.3871091c.1070884-.2435349-.1180316-.5016819-.3619116-.4172564l-6.4096663 2.2315916c-.2008883.0690015-.26733.3303957-.1250667.4935641z"/></g></svg>