<svg height="316" viewBox="0 0 316 316" width="316" xmlns="http://www.w3.org/2000/svg"><path d="m305.663635 173.611174c-.558177 5.39715 8.011748 12.200489 6.915568 17.417358-1.114112 5.300249-11.699303 8.024739-13.342451 13.108652-1.661081 5.142503 5.306046 13.597663 3.136104 18.487773-2.187875 4.928421-13.104834 5.370108-15.774669 10.007826-2.683286 4.667014 2.373934 14.397658-.768895 18.737913-3.149554 4.351522-13.920803 2.5059-17.498517 6.496861-3.579956 3.997722-.634394 14.571178-4.608885 18.172283-3.972248 3.596598-14.127037-.448448-18.457954 2.719983-4.315225 3.157164-3.611339 14.118223-8.249365 16.815671-4.617851 2.683928-13.71457-3.391528-18.617113-1.192105-4.862194 2.176888-6.444817 13.047807-11.56032 14.715402-5.054978 1.649568-12.683399-6.203905-17.955819-5.081658-5.189478 1.101965-8.998085 11.398239-14.366897 11.959363-5.265695.549855-11.103018-8.730088-16.514422-8.730088-5.409162 0-11.248727 9.279943-16.514422 8.730088-5.368812-.561124-9.177419-10.857398-14.369139-11.959363-5.267937-1.122247-12.900841 6.731226-17.955819 5.081658-5.115503-1.669848-6.698125-12.538514-11.5625609-14.717655-4.9025439-2.199424-13.9992622 3.876032-18.6148717 1.192105-4.6425095-2.699702-3.9363818-13.660761-8.2538484-16.817925-4.3309167-3.168431-14.4857058.876615-18.4557127-2.722237-3.9744903-3.601104-1.0266873-14.17456-4.6088844-18.170029-3.5777138-3.990961-14.3489636-2.145339-17.4985174-6.496861-3.1405871-4.340255 1.918874-14.070899-.7688946-18.737913-2.6675937-4.637718-13.5845524-5.079405-15.7724274-10.007826-2.1654584-4.890111 4.7994268-13.343016 3.1383454-18.48552-1.643148-5.081659-12.2260971-7.808402-13.34020972-13.106398-1.0984209-5.216869 7.47374542-12.020208 6.91556832-17.417358-.54921048-5.295742-10.3386065-10.172331-10.3386065-15.612298 0-5.437713 9.78939602-10.316556 10.3386065-15.610045.5581771-5.39715-8.01398922-12.200488-6.91556832-17.417357 1.11411262-5.30025 11.69706172-8.026993 13.34020972-13.108652 1.6610814-5.142504-5.3038038-13.597663-3.1361038-18.4877738 2.1878751-4.9284204 13.1048338-5.3701078 15.7746691-10.0100792 2.685527-4.6647601-2.3739341-14.3976579.7688946-18.7379129 3.1495538-4.3515226 13.9208036-2.5036466 17.4985174-6.494608 3.5799555-3.9977219.6343941-14.5734314 4.6088844-18.1722825 3.9722486-3.5965976 14.1270377.4484479 18.4579544-2.7199833 4.3174666-3.1571637 3.6090972-14.118223 8.2516068-16.8156712 4.6156094-2.6861807 13.7123278 3.3915284 18.6148717 1.1921053 4.8621935-2.1791415 6.4448165-13.047807 11.5603195-14.71540238 5.054978-1.65182082 12.68564 6.20165198 17.955819 5.08165888 5.19172-1.1042186 8.998085-11.39823974 14.366897-11.95936304 5.265695-.54985578 11.10526 8.72783362 16.514422 8.72783362 5.411404 0 11.248727-9.2776894 16.514422-8.72783362 5.368812.5611233 9.17966 10.85514444 14.369139 11.95936304 5.270178 1.1222466 12.900841-6.7334797 17.955819-5.08165888 5.115503 1.66984888 6.698125 12.53851438 11.562561 14.71765598 4.902544 2.199423 13.999262-3.878286 18.617113-1.1921054 4.640268 2.6997017 3.93414 13.6585075 8.251607 16.8179247 4.330917 3.1684312 14.485706-.8766143 18.457954 2.7199833 3.972249 3.6011046 1.026688 14.1745607 4.606643 18.1722825 3.577714 3.9909614 14.348964 2.145339 17.498518 6.4968615 3.140587 4.340255-1.918875 14.0686458.768894 18.7356594 2.667594 4.6399714 13.584552 5.0816588 15.772428 10.0100792 2.1677 4.8878573-4.799427 13.3430168-3.138346 18.4855198 1.643148 5.081659 12.228339 7.806149 13.342451 13.106399 1.09618 5.216869-7.473745 12.020207-6.915568 17.417357.546969 5.293489 10.336365 10.172332 10.336365 15.610045 0 5.439967-9.789396 10.316556-10.336365 15.612298z" fill-rule="evenodd"/></svg>